<mxfile host="app.diagrams.net" modified="2024-07-22T15:23:10.556Z" agent="Mozilla/5.0 (Windows NT 10.0; Win64; x64) AppleWebKit/537.36 (KHTML, like Gecko) Chrome/126.0.0.0 Safari/537.36" etag="1hdAGMrZXYnnNQMEcrnw" version="24.7.1" type="github">
  <diagram id="C5RBs43oDa-KdzZeNtuy" name="Page-1">
    <mxGraphModel dx="1434" dy="738" grid="1" gridSize="10" guides="1" tooltips="1" connect="1" arrows="1" fold="1" page="1" pageScale="1" pageWidth="827" pageHeight="1169" math="0" shadow="0">
      <root>
        <mxCell id="WIyWlLk6GJQsqaUBKTNV-0" />
        <mxCell id="WIyWlLk6GJQsqaUBKTNV-1" parent="WIyWlLk6GJQsqaUBKTNV-0" />
        <mxCell id="JKWNNszEek39fptKvs3F-8" style="edgeStyle=orthogonalEdgeStyle;rounded=0;orthogonalLoop=1;jettySize=auto;html=1;exitX=0.5;exitY=1;exitDx=0;exitDy=0;entryX=0.5;entryY=0;entryDx=0;entryDy=0;" edge="1" parent="WIyWlLk6GJQsqaUBKTNV-1" source="WIyWlLk6GJQsqaUBKTNV-3" target="JKWNNszEek39fptKvs3F-6">
          <mxGeometry relative="1" as="geometry" />
        </mxCell>
        <mxCell id="WIyWlLk6GJQsqaUBKTNV-3" value="スタートボタンをクリック" style="rounded=1;whiteSpace=wrap;html=1;fontSize=12;glass=0;strokeWidth=1;shadow=0;" parent="WIyWlLk6GJQsqaUBKTNV-1" vertex="1">
          <mxGeometry x="280" y="40" width="220" height="80" as="geometry" />
        </mxCell>
        <mxCell id="JKWNNszEek39fptKvs3F-12" value="" style="edgeStyle=orthogonalEdgeStyle;rounded=0;orthogonalLoop=1;jettySize=auto;html=1;" edge="1" parent="WIyWlLk6GJQsqaUBKTNV-1" source="JKWNNszEek39fptKvs3F-6" target="JKWNNszEek39fptKvs3F-11">
          <mxGeometry relative="1" as="geometry" />
        </mxCell>
        <mxCell id="JKWNNszEek39fptKvs3F-6" value="裏側のトランプを１０枚表示" style="rounded=1;whiteSpace=wrap;html=1;" vertex="1" parent="WIyWlLk6GJQsqaUBKTNV-1">
          <mxGeometry x="295" y="180" width="190" height="70" as="geometry" />
        </mxCell>
        <mxCell id="JKWNNszEek39fptKvs3F-14" value="" style="edgeStyle=orthogonalEdgeStyle;rounded=0;orthogonalLoop=1;jettySize=auto;html=1;" edge="1" parent="WIyWlLk6GJQsqaUBKTNV-1" source="JKWNNszEek39fptKvs3F-11" target="JKWNNszEek39fptKvs3F-13">
          <mxGeometry relative="1" as="geometry">
            <Array as="points">
              <mxPoint x="520" y="375" />
              <mxPoint x="520" y="375" />
            </Array>
          </mxGeometry>
        </mxCell>
        <mxCell id="JKWNNszEek39fptKvs3F-17" style="edgeStyle=orthogonalEdgeStyle;rounded=0;orthogonalLoop=1;jettySize=auto;html=1;" edge="1" parent="WIyWlLk6GJQsqaUBKTNV-1" source="JKWNNszEek39fptKvs3F-11">
          <mxGeometry relative="1" as="geometry">
            <mxPoint x="390" y="540" as="targetPoint" />
          </mxGeometry>
        </mxCell>
        <mxCell id="JKWNNszEek39fptKvs3F-11" value="トランプを２枚選ぶ" style="rhombus;whiteSpace=wrap;html=1;rounded=1;" vertex="1" parent="WIyWlLk6GJQsqaUBKTNV-1">
          <mxGeometry x="310" y="300" width="160" height="150" as="geometry" />
        </mxCell>
        <mxCell id="JKWNNszEek39fptKvs3F-16" style="edgeStyle=orthogonalEdgeStyle;rounded=0;orthogonalLoop=1;jettySize=auto;html=1;entryX=1;entryY=0.5;entryDx=0;entryDy=0;" edge="1" parent="WIyWlLk6GJQsqaUBKTNV-1" source="JKWNNszEek39fptKvs3F-13" target="JKWNNszEek39fptKvs3F-6">
          <mxGeometry relative="1" as="geometry">
            <mxPoint x="630" y="210" as="targetPoint" />
            <Array as="points">
              <mxPoint x="630" y="275" />
              <mxPoint x="631" y="275" />
              <mxPoint x="631" y="215" />
            </Array>
          </mxGeometry>
        </mxCell>
        <mxCell id="JKWNNszEek39fptKvs3F-13" value="選択したカードを裏に戻す" style="whiteSpace=wrap;html=1;rounded=1;" vertex="1" parent="WIyWlLk6GJQsqaUBKTNV-1">
          <mxGeometry x="570" y="340" width="120" height="65" as="geometry" />
        </mxCell>
        <mxCell id="JKWNNszEek39fptKvs3F-15" value="No" style="text;strokeColor=none;align=center;fillColor=none;html=1;verticalAlign=middle;whiteSpace=wrap;rounded=0;" vertex="1" parent="WIyWlLk6GJQsqaUBKTNV-1">
          <mxGeometry x="485" y="330" width="60" height="30" as="geometry" />
        </mxCell>
        <mxCell id="JKWNNszEek39fptKvs3F-21" value="" style="edgeStyle=orthogonalEdgeStyle;rounded=0;orthogonalLoop=1;jettySize=auto;html=1;" edge="1" parent="WIyWlLk6GJQsqaUBKTNV-1" source="JKWNNszEek39fptKvs3F-18" target="JKWNNszEek39fptKvs3F-20">
          <mxGeometry relative="1" as="geometry" />
        </mxCell>
        <mxCell id="JKWNNszEek39fptKvs3F-18" value="同じ数字のカードを表面のままにさせる。残りのカードは裏面をキープ" style="whiteSpace=wrap;html=1;" vertex="1" parent="WIyWlLk6GJQsqaUBKTNV-1">
          <mxGeometry x="305" y="535" width="170" height="100" as="geometry" />
        </mxCell>
        <mxCell id="JKWNNszEek39fptKvs3F-19" value="Yes" style="text;strokeColor=none;align=center;fillColor=none;html=1;verticalAlign=middle;whiteSpace=wrap;rounded=0;" vertex="1" parent="WIyWlLk6GJQsqaUBKTNV-1">
          <mxGeometry x="330" y="470" width="60" height="30" as="geometry" />
        </mxCell>
        <mxCell id="JKWNNszEek39fptKvs3F-25" value="" style="edgeStyle=orthogonalEdgeStyle;rounded=0;orthogonalLoop=1;jettySize=auto;html=1;" edge="1" parent="WIyWlLk6GJQsqaUBKTNV-1" source="JKWNNszEek39fptKvs3F-20" target="JKWNNszEek39fptKvs3F-24">
          <mxGeometry relative="1" as="geometry" />
        </mxCell>
        <mxCell id="JKWNNszEek39fptKvs3F-103" value="" style="edgeStyle=orthogonalEdgeStyle;rounded=0;orthogonalLoop=1;jettySize=auto;html=1;" edge="1" parent="WIyWlLk6GJQsqaUBKTNV-1" source="JKWNNszEek39fptKvs3F-20" target="JKWNNszEek39fptKvs3F-102">
          <mxGeometry relative="1" as="geometry" />
        </mxCell>
        <mxCell id="JKWNNszEek39fptKvs3F-20" value="トランプを２枚選ぶ" style="rhombus;whiteSpace=wrap;html=1;" vertex="1" parent="WIyWlLk6GJQsqaUBKTNV-1">
          <mxGeometry x="315" y="692.5" width="150" height="130" as="geometry" />
        </mxCell>
        <mxCell id="JKWNNszEek39fptKvs3F-27" style="edgeStyle=orthogonalEdgeStyle;rounded=0;orthogonalLoop=1;jettySize=auto;html=1;" edge="1" parent="WIyWlLk6GJQsqaUBKTNV-1">
          <mxGeometry relative="1" as="geometry">
            <mxPoint x="480" y="590" as="targetPoint" />
            <mxPoint x="619.5" y="730" as="sourcePoint" />
            <Array as="points">
              <mxPoint x="620" y="590" />
            </Array>
          </mxGeometry>
        </mxCell>
        <mxCell id="JKWNNszEek39fptKvs3F-24" value="選択したカードを裏に戻す" style="whiteSpace=wrap;html=1;" vertex="1" parent="WIyWlLk6GJQsqaUBKTNV-1">
          <mxGeometry x="560" y="730" width="120" height="55" as="geometry" />
        </mxCell>
        <mxCell id="JKWNNszEek39fptKvs3F-26" value="No" style="text;strokeColor=none;align=center;fillColor=none;html=1;verticalAlign=middle;whiteSpace=wrap;rounded=0;" vertex="1" parent="WIyWlLk6GJQsqaUBKTNV-1">
          <mxGeometry x="490" y="710" width="60" height="30" as="geometry" />
        </mxCell>
        <mxCell id="JKWNNszEek39fptKvs3F-101" value="*4" style="text;html=1;align=center;verticalAlign=middle;resizable=0;points=[];autosize=1;strokeColor=none;fillColor=none;" vertex="1" parent="WIyWlLk6GJQsqaUBKTNV-1">
          <mxGeometry x="435" y="662.5" width="30" height="30" as="geometry" />
        </mxCell>
        <mxCell id="JKWNNszEek39fptKvs3F-102" value="全て表になればクリア" style="ellipse;whiteSpace=wrap;html=1;" vertex="1" parent="WIyWlLk6GJQsqaUBKTNV-1">
          <mxGeometry x="325" y="870" width="130" height="130" as="geometry" />
        </mxCell>
      </root>
    </mxGraphModel>
  </diagram>
</mxfile>
